<svg width="600" height="338" viewBox="0 0 600 338" fill="none" xmlns="http://www.w3.org/2000/svg">
<g clip-path="url(#clip0_263_3665)">
<rect width="600" height="338" fill="#161616"/>
<g clip-path="url(#clip1_263_3665)">
<path d="M144.148 325.079C142.606 325.079 141.105 324.323 140.206 322.924C116.818 286.443 103.735 244.335 102.367 201.154C102.285 198.57 104.307 196.415 106.891 196.334C109.475 196.252 111.63 198.274 111.712 200.858C113.029 242.353 125.601 282.817 148.08 317.879C149.469 320.054 148.846 322.944 146.671 324.344C145.884 324.844 145.016 325.079 144.148 325.079Z" fill="#FF0A1B"/>
<path d="M342.628 401.309C327.819 401.309 312.908 399.726 298.151 396.499C260.74 388.318 226.404 370.026 198.839 343.595C196.97 341.808 196.909 338.846 198.696 336.987C200.483 335.118 203.445 335.057 205.304 336.844C231.623 362.081 264.417 379.545 300.132 387.358C357.59 399.92 417.357 386.449 464.112 350.377C466.155 348.804 469.096 349.182 470.669 351.224C472.242 353.267 471.864 356.208 469.821 357.781C432.881 386.275 388.178 401.309 342.608 401.309H342.628Z" fill="#00BB4F"/>
<path d="M342.639 369.035C330.067 369.035 317.494 367.677 305.055 364.95C273.241 357.995 244.073 342.39 220.706 319.819C218.847 318.021 218.796 315.059 220.593 313.201C222.391 311.342 225.352 311.291 227.201 313.088C249.322 334.444 276.928 349.222 307.057 355.809C326.635 360.089 346.54 360.824 366.231 357.985C385.248 355.238 403.539 349.253 420.605 340.184C454.992 321.912 482.006 292.152 496.672 256.396C497.652 254.006 500.379 252.862 502.769 253.843C505.159 254.823 506.303 257.55 505.322 259.94C489.839 297.708 461.314 329.143 424.997 348.436C406.981 358.015 387.658 364.337 367.569 367.238C359.286 368.433 350.962 369.025 342.649 369.025L342.639 369.035Z" fill="#00B7E7"/>
<path d="M107.044 205.678C104.532 205.678 102.448 203.677 102.377 201.154C101.08 160.251 110.272 119.399 128.961 83.0097C148.223 45.487 177.228 13.5815 212.861 -9.26499C215.037 -10.6642 217.927 -10.031 219.326 -7.85559C220.715 -5.68022 220.092 -2.78993 217.917 -1.39075C183.683 20.557 155.791 51.2165 137.285 87.2685C119.32 122.258 110.486 161.527 111.732 200.848C111.814 203.431 109.792 205.586 107.208 205.668C107.157 205.668 107.106 205.668 107.054 205.668L107.044 205.678Z" fill="#00B7E7"/>
<path d="M202.087 344.902C200.923 344.902 199.759 344.473 198.85 343.605C173.552 319.349 154.607 288.874 144.067 255.477C133.19 221.028 131.546 184.108 139.288 148.69C139.839 146.167 142.331 144.574 144.854 145.125C147.376 145.677 148.98 148.169 148.428 150.691C141.034 184.507 142.607 219.772 152.993 252.658C163.063 284.564 181.161 313.681 205.325 336.844C207.194 338.631 207.255 341.593 205.468 343.452C204.549 344.412 203.323 344.892 202.087 344.892V344.902Z" fill="#FFB325"/>
<path d="M153.504 132.614C157.965 132.614 161.582 128.997 161.582 124.536C161.582 120.074 157.965 116.457 153.504 116.457C149.042 116.457 145.425 120.074 145.425 124.536C145.425 128.997 149.042 132.614 153.504 132.614Z" fill="#00B7E7"/>
<path d="M51.7513 168.074C57.6343 168.074 62.4035 163.305 62.4035 157.422C62.4035 151.539 57.6343 146.77 51.7513 146.77C45.8683 146.77 41.0991 151.539 41.0991 157.422C41.0991 163.305 45.8683 168.074 51.7513 168.074Z" fill="#FF0A1B"/>
<path d="M517.424 90.0467C523.307 90.0467 528.077 85.2776 528.077 79.3946C528.077 73.5115 523.307 68.7424 517.424 68.7424C511.541 68.7424 506.772 73.5115 506.772 79.3946C506.772 85.2776 511.541 90.0467 517.424 90.0467Z" fill="#FFB325"/>
<path d="M563.679 242.64C566.618 242.64 569 240.257 569 237.319C569 234.38 566.618 231.998 563.679 231.998C560.74 231.998 558.358 234.38 558.358 237.319C558.358 240.257 560.74 242.64 563.679 242.64Z" fill="#FFB325"/>
<path d="M435.863 -0.869751C435.863 26.2765 457.872 48.2855 485.018 48.2855C512.164 48.2855 534.173 26.2765 534.173 -0.869751H435.863Z" fill="#00BB4F"/>
<path d="M-2 293.919C25.1462 293.919 47.1553 315.928 47.1553 343.075H-2V293.919Z" fill="#00B7E7"/>
</g>
<g clip-path="url(#clip2_263_3665)">
<path d="M390.77 101V203.07C390.77 210.25 384.93 216.1 377.74 216.1H222.03C214.85 216.1 209 210.26 209 203.07V114.03C209 106.84 214.84 101 222.03 101H390.77Z" fill="#161616"/>
<path d="M222.03 103.8H387.97V171.09H211.8V114.03C211.8 108.39 216.39 103.8 222.03 103.8Z" fill="white"/>
<path d="M211.8 203.07V173.89H387.97V203.07C387.97 208.71 383.38 213.29 377.75 213.29H222.03C216.39 213.29 211.81 208.7 211.81 203.07H211.8Z" fill="white"/>
<path d="M337.51 126.23H363.56L339.49 150.3L337.51 148.32L356.79 129.04H337.51V126.23Z" fill="#FFB325"/>
<path d="M366.36 123.43H337.51V120.62H369.17L366.36 123.43Z" fill="#FF0A1B"/>
<path d="M368.35 125.41L371.15 122.61V154.27H368.35V125.41Z" fill="#00BB4F"/>
<path d="M365.54 154.27H362.74V134.98L343.45 154.27L341.47 152.28L365.54 128.21V154.27Z" fill="#00B7E7"/>
<path d="M233.17 134.91H235.61C237.17 134.91 238.31 134.54 239.05 133.8C239.79 133.06 240.16 131.91 240.16 130.37V125.7C240.16 124.14 239.79 123 239.05 122.26C238.31 121.52 237.17 121.15 235.61 121.15H233.17C231.63 121.14 230.48 121.5 229.74 122.23C229 122.96 228.62 124.11 228.62 125.68V130.37C228.62 131.92 228.99 133.06 229.73 133.8C230.47 134.54 231.62 134.91 233.16 134.91H233.17ZM233.17 133.21C232.45 133.21 231.88 133.12 231.47 132.95C231.06 132.78 230.77 132.49 230.59 132.07C230.42 131.66 230.33 131.09 230.33 130.37V125.68C230.33 124.96 230.42 124.39 230.59 123.98C230.77 123.57 231.06 123.28 231.47 123.11C231.88 122.94 232.45 122.86 233.16 122.87H235.6C236.32 122.87 236.89 122.96 237.3 123.13C237.71 123.31 238 123.6 238.18 124.01C238.35 124.42 238.44 124.99 238.44 125.7V130.37C238.44 131.09 238.35 131.66 238.18 132.07C238.01 132.48 237.71 132.77 237.3 132.95C236.89 133.12 236.32 133.21 235.6 133.21H233.16H233.17Z" fill="#161616"/>
<path d="M244.53 138.97C245.1 138.97 245.38 138.69 245.38 138.12V134.91H249.32C250.67 134.91 251.67 134.58 252.32 133.93C252.97 133.28 253.29 132.28 253.29 130.93V128.6C253.29 127.25 252.97 126.25 252.32 125.6C251.67 124.95 250.67 124.63 249.32 124.63H248.55C247.88 124.63 247.28 124.72 246.74 124.91C246.2 125.1 245.75 125.37 245.39 125.74V125.49C245.39 124.92 245.11 124.64 244.54 124.64C243.97 124.64 243.69 124.92 243.69 125.49V138.13C243.69 138.7 243.97 138.98 244.54 138.98L244.53 138.97ZM245.38 133.21V127.6C245.41 127.16 245.74 126.84 246.35 126.64C246.97 126.44 247.7 126.34 248.54 126.34H249.31C250.2 126.34 250.8 126.5 251.11 126.81C251.42 127.12 251.58 127.72 251.58 128.61V130.94C251.58 131.82 251.42 132.42 251.11 132.74C250.8 133.06 250.19 133.22 249.31 133.22H245.37L245.38 133.21Z" fill="#161616"/>
<path d="M258.05 130.46H265.11C265.68 130.46 265.96 130.18 265.96 129.61V128.6C265.96 127.24 265.64 126.24 264.99 125.59C264.34 124.94 263.34 124.62 261.99 124.62H260.33C258.98 124.61 257.98 124.92 257.33 125.57C256.68 126.22 256.35 127.23 256.35 128.6V130.95C256.35 132.29 256.68 133.28 257.33 133.93C257.98 134.58 258.98 134.9 260.33 134.9H261.99C263.14 134.9 264.04 134.69 264.69 134.28C265.34 133.87 265.74 133.24 265.89 132.4C265.94 132.12 265.89 131.9 265.75 131.75C265.6 131.6 265.38 131.53 265.1 131.53C264.82 131.53 264.63 131.6 264.5 131.73C264.37 131.87 264.27 132.06 264.19 132.32C264.08 132.64 263.86 132.87 263.53 133C263.2 133.13 262.69 133.19 262 133.19H260.34C259.46 133.19 258.86 133.03 258.54 132.72C258.22 132.41 258.06 131.81 258.06 130.94V130.45L258.05 130.46ZM260.32 126.32H261.98C262.87 126.32 263.47 126.48 263.78 126.79C264.09 127.1 264.25 127.7 264.25 128.59V128.75H258.04V128.59C258.04 127.7 258.2 127.09 258.52 126.77C258.84 126.45 259.44 126.3 260.32 126.31V126.32Z" fill="#161616"/>
<path d="M270.35 134.91C270.92 134.91 271.2 134.63 271.2 134.06V127.48C271.29 127.08 271.64 126.79 272.25 126.6C272.85 126.41 273.56 126.32 274.37 126.32H274.94C275.81 126.32 276.41 126.48 276.73 126.79C277.05 127.1 277.21 127.7 277.21 128.59V134.05C277.21 134.62 277.49 134.9 278.06 134.9C278.63 134.9 278.91 134.62 278.91 134.05V128.59C278.91 127.24 278.59 126.24 277.94 125.59C277.29 124.94 276.29 124.62 274.94 124.62H274.37C272.98 124.62 271.92 125.02 271.2 125.81V125.48C271.2 124.91 270.92 124.63 270.35 124.63C269.78 124.63 269.5 124.91 269.5 125.48V134.06C269.5 134.63 269.78 134.91 270.35 134.91Z" fill="#161616"/>
<path d="M283.58 134.91C283.88 134.91 284.09 134.84 284.23 134.7C284.37 134.56 284.43 134.35 284.43 134.06V122.03C284.43 121.73 284.36 121.52 284.23 121.38C284.09 121.24 283.88 121.18 283.58 121.18C283.28 121.18 283.07 121.25 282.94 121.38C282.8 121.52 282.73 121.73 282.73 122.03V134.06C282.73 134.35 282.8 134.57 282.94 134.7C283.08 134.83 283.29 134.91 283.58 134.91Z" fill="#161616"/>
<path d="M289.3 134.91C289.87 134.91 290.15 134.63 290.15 134.06V127.48C290.24 127.08 290.59 126.79 291.19 126.6C291.79 126.41 292.5 126.32 293.31 126.32H293.88C294.75 126.32 295.35 126.48 295.67 126.79C295.99 127.1 296.15 127.7 296.15 128.59V134.05C296.15 134.62 296.43 134.9 297 134.9C297.57 134.9 297.85 134.62 297.85 134.05V128.59C297.85 127.24 297.53 126.24 296.88 125.59C296.23 124.94 295.23 124.62 293.88 124.62H293.31C291.92 124.62 290.86 125.02 290.14 125.81V125.48C290.14 124.91 289.86 124.63 289.29 124.63C288.72 124.63 288.44 124.91 288.44 125.48V134.06C288.44 134.63 288.72 134.91 289.29 134.91H289.3Z" fill="#161616"/>
<path d="M302.92 134.91C303.49 134.91 303.77 134.63 303.77 134.06V126.33H305.86C306.43 126.33 306.71 126.05 306.71 125.48C306.71 124.91 306.43 124.63 305.86 124.63H303.77V124.55C303.77 123.68 303.93 123.1 304.24 122.79C304.55 122.49 305.13 122.33 305.99 122.33C306.48 122.33 306.72 122.05 306.72 121.48C306.72 120.91 306.48 120.63 305.99 120.63C304.66 120.63 303.68 120.95 303.04 121.59C302.4 122.23 302.08 123.22 302.08 124.55V124.63H301.33C300.76 124.63 300.48 124.91 300.48 125.48C300.48 126.05 300.76 126.33 301.33 126.33H302.08V134.06C302.08 134.63 302.36 134.91 302.93 134.91H302.92Z" fill="#161616"/>
<path d="M310.16 134.91C310.73 134.91 311.01 134.63 311.01 134.06V128.69C311.04 127.98 311.37 127.41 311.98 126.98C312.6 126.55 313.49 126.33 314.66 126.33C315.23 126.33 315.51 126.05 315.51 125.48C315.51 124.91 315.23 124.63 314.66 124.63C313.86 124.63 313.15 124.77 312.53 125.05C311.91 125.33 311.4 125.74 311 126.28V125.49C311 124.92 310.72 124.64 310.15 124.64C309.58 124.64 309.3 124.92 309.3 125.49V134.07C309.3 134.64 309.58 134.92 310.15 134.92L310.16 134.91Z" fill="#161616"/>
<path d="M320.33 134.91H321.47C322.86 134.91 323.91 134.47 324.64 133.6V134.06C324.64 134.63 324.92 134.91 325.49 134.91C326.06 134.91 326.34 134.63 326.34 134.06V128.6C326.34 127.25 326.02 126.25 325.37 125.6C324.72 124.95 323.72 124.63 322.37 124.63H321.19C320.03 124.63 319.13 124.81 318.49 125.16C317.84 125.51 317.42 126.07 317.22 126.84C317.15 127.1 317.2 127.32 317.36 127.47C317.52 127.62 317.75 127.71 318.03 127.71C318.29 127.71 318.48 127.66 318.61 127.55C318.74 127.44 318.86 127.25 318.99 126.96C319.13 126.72 319.36 126.56 319.69 126.47C320.02 126.38 320.53 126.33 321.2 126.33H322.38C323.18 126.33 323.75 126.46 324.08 126.72C324.41 126.98 324.6 127.47 324.64 128.18H320.35C319.21 128.18 318.36 128.46 317.81 129.01C317.26 129.57 316.98 130.41 316.98 131.55C316.98 132.69 317.26 133.53 317.81 134.09C318.36 134.65 319.21 134.92 320.35 134.92L320.33 134.91ZM320.33 133.21C319.66 133.21 319.22 133.1 319 132.88C318.78 132.66 318.67 132.22 318.67 131.55C318.67 130.88 318.78 130.44 319 130.22C319.22 130 319.66 129.89 320.33 129.89H324.63V131.53C324.53 131.98 324.32 132.33 324.01 132.58C323.7 132.83 323.32 132.99 322.88 133.08C322.44 133.17 321.97 133.22 321.47 133.22H320.33V133.21Z" fill="#161616"/>
<path d="M231.67 154.27H233.3C234.34 154.27 235.11 154.02 235.61 153.53C236.11 153.04 236.35 152.27 236.35 151.23V145.63C236.35 145.44 236.3 145.3 236.21 145.2C236.11 145.11 235.97 145.06 235.78 145.06C235.59 145.06 235.45 145.11 235.35 145.2C235.25 145.29 235.21 145.44 235.21 145.63V151.23C235.21 151.71 235.15 152.1 235.04 152.37C234.92 152.65 234.73 152.84 234.45 152.96C234.17 153.08 233.79 153.13 233.31 153.13H231.68C231.19 153.13 230.81 153.07 230.54 152.96C230.26 152.84 230.07 152.65 229.95 152.37C229.83 152.09 229.78 151.71 229.78 151.23V145.63C229.78 145.44 229.73 145.3 229.64 145.2C229.55 145.1 229.4 145.06 229.21 145.06C229.02 145.06 228.88 145.11 228.78 145.2C228.68 145.29 228.64 145.44 228.64 145.63V151.23C228.64 152.27 228.89 153.04 229.38 153.53C229.87 154.02 230.64 154.27 231.68 154.27H231.67Z" fill="#161616"/>
<path d="M242.64 154.27H244.6C245.5 154.27 246.16 154.06 246.6 153.63C247.04 153.2 247.25 152.54 247.25 151.63C247.25 150.72 247.03 150.05 246.59 149.62C246.15 149.19 245.49 148.97 244.59 148.97H242.9C242.36 148.97 241.99 148.87 241.8 148.67C241.61 148.47 241.51 148.1 241.51 147.57C241.51 147.04 241.6 146.68 241.79 146.49C241.98 146.3 242.34 146.2 242.89 146.2H244.51C244.92 146.2 245.22 146.25 245.43 146.35C245.63 146.45 245.77 146.63 245.84 146.9C245.87 147.08 245.93 147.22 246.02 147.31C246.11 147.4 246.25 147.45 246.43 147.45C246.63 147.45 246.78 147.4 246.88 147.3C246.98 147.2 247.02 147.05 246.99 146.85C246.88 146.24 246.62 145.79 246.21 145.5C245.8 145.21 245.23 145.06 244.51 145.06H242.89C242.03 145.06 241.4 145.27 240.99 145.68C240.58 146.09 240.37 146.73 240.37 147.58C240.37 148.43 240.58 149.08 240.99 149.5C241.4 149.92 242.04 150.13 242.9 150.13H244.59C245.16 150.13 245.56 150.24 245.77 150.45C245.99 150.67 246.1 151.07 246.1 151.65C246.1 152.23 245.99 152.62 245.78 152.83C245.57 153.04 245.17 153.15 244.59 153.15H242.63C242.17 153.15 241.82 153.09 241.6 152.98C241.38 152.86 241.23 152.65 241.16 152.34C241.13 152.15 241.07 152.01 240.98 151.92C240.89 151.83 240.75 151.78 240.56 151.78C240.37 151.78 240.22 151.83 240.12 151.93C240.02 152.03 239.98 152.18 240 152.38C240.11 153.03 240.38 153.52 240.81 153.83C241.24 154.14 241.85 154.3 242.62 154.3L242.64 154.27Z" fill="#161616"/>
<path d="M251.76 154.27H256.64C257.02 154.27 257.21 154.08 257.21 153.7C257.21 153.32 257.02 153.13 256.64 153.13H252.33V150.19H255.04C255.42 150.19 255.61 150 255.61 149.62C255.61 149.24 255.42 149.05 255.04 149.05H252.33V146.19H256.64C257.02 146.19 257.21 146 257.21 145.62C257.21 145.24 257.02 145.05 256.64 145.05H251.76C251.38 145.05 251.19 145.24 251.19 145.62V153.7C251.19 154.08 251.38 154.27 251.76 154.27Z" fill="#161616"/>
<path d="M266.95 154.29C267.27 154.09 267.34 153.83 267.17 153.51L265.39 150.54C266.02 150.44 266.51 150.17 266.85 149.74C267.19 149.31 267.35 148.74 267.35 148.02V147.61C267.35 146.78 267.13 146.14 266.69 145.7C266.25 145.26 265.61 145.04 264.78 145.04H261.6C261.22 145.04 261.03 145.23 261.03 145.61V153.69C261.03 154.07 261.22 154.26 261.6 154.26C261.98 154.26 262.17 154.07 262.17 153.69V150.59H264.07L266.18 154.1C266.27 154.25 266.39 154.34 266.53 154.38C266.67 154.42 266.81 154.38 266.96 154.29H266.95ZM262.16 149.45V146.18H264.77C265.29 146.18 265.65 146.29 265.87 146.51C266.09 146.73 266.2 147.1 266.2 147.61V148.02C266.2 148.54 266.09 148.9 265.87 149.12C265.65 149.34 265.29 149.45 264.77 149.45H262.16Z" fill="#161616"/>
<path d="M279.24 154.27H280.87C281.82 154.27 282.52 154.05 282.97 153.61C283.42 153.17 283.64 152.46 283.64 151.5V150.29C283.64 149.91 283.45 149.72 283.07 149.72H281.44C281.06 149.71 280.87 149.9 280.87 150.28C280.87 150.66 281.06 150.85 281.44 150.85H282.5V151.5C282.5 151.93 282.45 152.26 282.36 152.5C282.27 152.74 282.1 152.9 281.86 152.99C281.62 153.08 281.29 153.13 280.87 153.13H279.24C278.76 153.13 278.37 153.07 278.1 152.96C277.82 152.84 277.63 152.65 277.51 152.37C277.39 152.09 277.34 151.71 277.34 151.23V148.1C277.34 147.61 277.4 147.23 277.51 146.95C277.63 146.67 277.82 146.47 278.09 146.36C278.36 146.25 278.74 146.19 279.22 146.2H280.87C281.4 146.2 281.79 146.27 282.03 146.42C282.27 146.57 282.42 146.85 282.46 147.26C282.51 147.64 282.71 147.83 283.06 147.83C283.25 147.83 283.4 147.78 283.5 147.68C283.6 147.58 283.64 147.44 283.61 147.24C283.54 146.48 283.28 145.93 282.83 145.58C282.38 145.23 281.73 145.05 280.88 145.05H279.23C278.2 145.05 277.43 145.28 276.94 145.78C276.45 146.28 276.2 147.05 276.2 148.1V151.23C276.2 152.27 276.45 153.04 276.94 153.53C277.43 154.02 278.2 154.27 279.24 154.27Z" fill="#161616"/>
<path d="M293.24 154.29C293.56 154.09 293.63 153.83 293.46 153.51L291.68 150.54C292.31 150.44 292.8 150.17 293.14 149.74C293.48 149.31 293.64 148.74 293.64 148.02V147.61C293.64 146.78 293.42 146.14 292.98 145.7C292.54 145.26 291.9 145.04 291.07 145.04H287.89C287.51 145.04 287.32 145.23 287.32 145.61V153.69C287.32 154.07 287.51 154.26 287.89 154.26C288.27 154.26 288.46 154.07 288.46 153.69V150.59H290.36L292.47 154.1C292.56 154.25 292.68 154.34 292.82 154.38C292.96 154.42 293.1 154.38 293.25 154.29H293.24ZM288.45 149.45V146.18H291.06C291.58 146.18 291.94 146.29 292.16 146.51C292.38 146.73 292.49 147.1 292.49 147.61V148.02C292.49 148.54 292.38 148.9 292.16 149.12C291.94 149.34 291.58 149.45 291.06 149.45H288.45Z" fill="#161616"/>
<path d="M299.96 154.27H301.59C302.63 154.27 303.4 154.02 303.9 153.53C304.39 153.03 304.64 152.27 304.64 151.23V148.1C304.64 147.06 304.39 146.29 303.9 145.79C303.41 145.3 302.64 145.05 301.59 145.05H299.96C298.93 145.05 298.16 145.28 297.66 145.77C297.16 146.26 296.91 147.03 296.91 148.08V151.22C296.91 152.26 297.16 153.03 297.65 153.52C298.14 154.01 298.91 154.26 299.95 154.26L299.96 154.27ZM299.96 153.13C299.48 153.13 299.09 153.07 298.82 152.96C298.54 152.84 298.35 152.65 298.23 152.37C298.11 152.09 298.06 151.71 298.06 151.23V148.09C298.06 147.6 298.12 147.22 298.24 146.95C298.36 146.67 298.56 146.48 298.83 146.37C299.11 146.26 299.49 146.2 299.97 146.21H301.6C302.08 146.21 302.47 146.27 302.74 146.39C303.02 146.51 303.21 146.71 303.33 146.98C303.45 147.26 303.5 147.64 303.5 148.12V151.25C303.5 151.73 303.44 152.12 303.33 152.39C303.21 152.67 303.02 152.86 302.74 152.98C302.46 153.1 302.08 153.15 301.6 153.15H299.97L299.96 153.13Z" fill="#161616"/>
<path d="M311.55 154.27H313.18C314.22 154.27 314.99 154.02 315.49 153.53C315.99 153.04 316.23 152.27 316.23 151.23V145.63C316.23 145.44 316.18 145.3 316.09 145.2C315.99 145.11 315.85 145.06 315.66 145.06C315.47 145.06 315.33 145.11 315.23 145.2C315.13 145.29 315.09 145.44 315.09 145.63V151.23C315.09 151.71 315.03 152.1 314.92 152.37C314.8 152.65 314.61 152.84 314.33 152.96C314.05 153.08 313.67 153.13 313.19 153.13H311.56C311.07 153.13 310.69 153.07 310.42 152.96C310.14 152.84 309.95 152.65 309.83 152.37C309.71 152.09 309.66 151.71 309.66 151.23V145.63C309.66 145.44 309.61 145.3 309.52 145.2C309.43 145.1 309.28 145.06 309.09 145.06C308.9 145.06 308.76 145.11 308.66 145.2C308.56 145.29 308.52 145.44 308.52 145.63V151.23C308.52 152.27 308.77 153.04 309.26 153.53C309.75 154.02 310.52 154.27 311.56 154.27H311.55Z" fill="#161616"/>
<path d="M320.58 154.27C320.96 154.27 321.15 154.08 321.15 153.7V150.6H323.76C324.59 150.6 325.23 150.38 325.67 149.94C326.11 149.5 326.33 148.86 326.33 148.03V147.62C326.33 146.79 326.11 146.15 325.67 145.71C325.23 145.27 324.59 145.05 323.76 145.05H320.58C320.2 145.05 320.01 145.24 320.01 145.62V153.7C320.01 154.08 320.2 154.27 320.58 154.27ZM321.15 149.45V146.18H323.76C324.28 146.18 324.64 146.29 324.86 146.51C325.08 146.73 325.19 147.1 325.19 147.61V148.02C325.19 148.54 325.08 148.9 324.86 149.12C324.64 149.34 324.28 149.45 323.76 149.45H321.15Z" fill="#161616"/>
<path d="M274.82 197.79H270.21L269.33 200.42H266.53L271.28 187.65H273.72L278.5 200.42H275.7L274.81 197.79H274.82ZM270.92 195.66H274.11L272.5 190.88L270.91 195.66H270.92Z" fill="#161616"/>
<path d="M284.94 199.45C284.32 200.21 283.45 200.59 282.34 200.59C281.32 200.59 280.55 200.3 280.01 199.71C279.47 199.13 279.2 198.27 279.19 197.14V190.92H281.72V197.06C281.72 198.05 282.17 198.54 283.07 198.54C283.97 198.54 284.52 198.24 284.84 197.64V190.91H287.38V200.4H284.99L284.92 199.44L284.94 199.45Z" fill="#161616"/>
<path d="M288.76 195.6C288.76 194.14 289.11 192.97 289.8 192.08C290.49 191.19 291.43 190.75 292.6 190.75C293.64 190.75 294.45 191.11 295.03 191.82L295.14 190.93H297.44V200.1C297.44 200.93 297.25 201.65 296.87 202.27C296.49 202.88 295.96 203.35 295.28 203.67C294.6 203.99 293.79 204.15 292.88 204.15C292.18 204.15 291.51 204.01 290.85 203.73C290.19 203.45 289.69 203.09 289.35 202.66L290.47 201.12C291.1 201.83 291.87 202.18 292.77 202.18C293.44 202.18 293.97 202 294.34 201.64C294.71 201.28 294.9 200.77 294.9 200.11V199.6C294.32 200.26 293.55 200.59 292.59 200.59C291.45 200.59 290.53 200.14 289.82 199.25C289.11 198.36 288.76 197.18 288.76 195.7V195.59V195.6ZM291.29 195.78C291.29 196.64 291.46 197.32 291.81 197.81C292.15 198.3 292.63 198.55 293.23 198.55C294 198.55 294.55 198.26 294.89 197.68V193.67C294.55 193.09 294 192.8 293.25 192.8C292.64 192.8 292.16 193.05 291.82 193.55C291.48 194.05 291.3 194.8 291.3 195.79L291.29 195.78Z" fill="#161616"/>
<path d="M304.88 199.45C304.26 200.21 303.39 200.59 302.28 200.59C301.26 200.59 300.49 200.3 299.95 199.71C299.41 199.13 299.14 198.27 299.13 197.14V190.92H301.67V197.06C301.67 198.05 302.12 198.54 303.02 198.54C303.92 198.54 304.47 198.24 304.79 197.64V190.91H307.33V200.4H304.94L304.87 199.44L304.88 199.45Z" fill="#161616"/>
<path d="M314.21 197.79C314.21 197.48 314.06 197.24 313.75 197.06C313.44 196.88 312.95 196.72 312.27 196.58C310.01 196.11 308.88 195.15 308.88 193.7C308.88 192.86 309.23 192.16 309.93 191.59C310.63 191.03 311.54 190.74 312.67 190.74C313.87 190.74 314.84 191.02 315.56 191.59C316.28 192.16 316.64 192.89 316.64 193.8H314.11C314.11 193.44 313.99 193.14 313.76 192.9C313.53 192.66 313.16 192.55 312.66 192.55C312.23 192.55 311.9 192.65 311.67 192.84C311.44 193.03 311.32 193.28 311.32 193.58C311.32 193.86 311.45 194.09 311.72 194.26C311.99 194.43 312.43 194.58 313.07 194.71C313.71 194.84 314.23 194.98 314.67 195.14C316.01 195.63 316.68 196.48 316.68 197.69C316.68 198.56 316.31 199.26 315.57 199.79C314.83 200.33 313.87 200.59 312.69 200.59C311.89 200.59 311.19 200.45 310.57 200.16C309.95 199.88 309.47 199.49 309.12 198.99C308.77 198.5 308.59 197.96 308.59 197.39H310.99C311.01 197.84 311.18 198.18 311.49 198.43C311.8 198.67 312.21 198.79 312.74 198.79C313.23 198.79 313.59 198.7 313.84 198.51C314.09 198.33 314.21 198.08 314.21 197.79Z" fill="#161616"/>
<path d="M321.16 188.6V190.93H322.78V192.79H321.16V197.53C321.16 197.88 321.23 198.13 321.36 198.28C321.49 198.43 321.75 198.51 322.13 198.51C322.41 198.51 322.66 198.49 322.88 198.45V200.37C322.38 200.52 321.87 200.6 321.34 200.6C319.56 200.6 318.66 199.7 318.62 197.91V192.8H317.23V190.94H318.62V188.61H321.15L321.16 188.6Z" fill="#161616"/>
<path d="M329.51 200.42C329.39 200.19 329.31 199.91 329.26 199.57C328.65 200.25 327.85 200.6 326.87 200.6C325.94 200.6 325.17 200.33 324.56 199.79C323.95 199.25 323.64 198.57 323.64 197.75C323.64 196.74 324.01 195.97 324.76 195.43C325.51 194.89 326.58 194.62 327.99 194.61H329.16V194.07C329.16 193.63 329.05 193.28 328.82 193.02C328.59 192.76 328.24 192.62 327.75 192.62C327.32 192.62 326.99 192.72 326.75 192.93C326.51 193.13 326.39 193.42 326.39 193.77H323.86C323.86 193.22 324.03 192.71 324.37 192.24C324.71 191.77 325.19 191.41 325.81 191.14C326.43 190.87 327.13 190.74 327.9 190.74C329.07 190.74 330 191.03 330.69 191.62C331.38 192.21 331.72 193.03 331.72 194.1V198.21C331.72 199.11 331.85 199.79 332.1 200.25V200.4H329.54L329.51 200.42ZM327.41 198.66C327.79 198.66 328.13 198.58 328.45 198.41C328.77 198.24 329 198.02 329.15 197.74V196.11H328.2C326.93 196.11 326.26 196.55 326.17 197.43V197.58C326.17 197.9 326.27 198.16 326.49 198.36C326.71 198.56 327.02 198.67 327.4 198.67L327.41 198.66Z" fill="#161616"/>
</g>
<path d="M391 103.71H223.454C216.326 103.71 210.52 109.516 210.52 116.644V205.056C210.52 212.189 216.321 217.989 223.454 217.989H378.066C385.199 217.989 391 212.189 391 205.056V103.71Z" fill="white"/>
<path d="M223.454 106.498C217.857 106.498 213.303 111.053 213.303 116.649V173.306H388.217V106.498H223.454Z" fill="#161616"/>
<path d="M213.318 204.826C213.318 210.422 217.873 214.977 223.469 214.977H378.082C383.678 214.977 388.232 210.422 388.232 204.826V175.854H213.318V204.826Z" fill="#161616"/>
<path d="M338.111 128.766V131.548H357.259L338.111 150.696L340.082 152.662L363.979 128.766H338.111Z" fill="#FFB325"/>
<path d="M366.766 125.983L369.549 123.195H338.111V125.983H366.766Z" fill="#FF0A1B"/>
<path d="M368.732 127.949V156.599H371.515V125.166L368.732 127.949Z" fill="#00BB4F"/>
<path d="M365.949 156.599V130.731L342.048 154.633L344.019 156.599L363.167 137.451V156.599H365.949Z" fill="#00B7E7"/>
<path d="M234.519 137.38C232.982 137.38 231.843 137.012 231.108 136.277C230.373 135.541 230.005 134.403 230.005 132.866V128.209C230.005 126.657 230.373 125.518 231.113 124.788C231.853 124.058 232.987 123.7 234.519 123.716H236.934C238.481 123.716 239.62 124.083 240.35 124.813C241.08 125.544 241.448 126.682 241.448 128.229V132.866C241.448 134.403 241.08 135.541 240.35 136.277C239.62 137.012 238.481 137.38 236.934 137.38H234.519ZM234.519 135.684H236.934C237.654 135.684 238.215 135.598 238.629 135.429C239.038 135.255 239.329 134.97 239.502 134.556C239.676 134.147 239.758 133.581 239.758 132.861V128.224C239.758 127.515 239.671 126.953 239.502 126.544C239.329 126.136 239.038 125.845 238.629 125.666C238.221 125.493 237.654 125.406 236.934 125.406H234.519C233.809 125.401 233.247 125.482 232.834 125.646C232.42 125.809 232.134 126.1 231.955 126.514C231.782 126.922 231.695 127.489 231.695 128.209V132.866C231.695 133.586 231.782 134.147 231.95 134.561C232.124 134.97 232.415 135.261 232.823 135.434C233.232 135.608 233.799 135.689 234.519 135.689V135.684Z" fill="white"/>
<path d="M245.803 141.408C245.236 141.408 244.956 141.127 244.956 140.561V128.01C244.956 127.443 245.236 127.162 245.803 127.162C246.37 127.162 246.651 127.443 246.651 128.01V128.26C247.013 127.898 247.463 127.622 247.994 127.438C248.53 127.254 249.127 127.162 249.791 127.162H250.557C251.9 127.162 252.896 127.484 253.539 128.127C254.182 128.771 254.504 129.766 254.504 131.109V133.427C254.504 134.765 254.182 135.756 253.539 136.404C252.896 137.053 251.9 137.374 250.557 137.374H246.646V140.561C246.646 141.127 246.365 141.408 245.798 141.408H245.803ZM246.651 135.684H250.562C251.44 135.684 252.038 135.526 252.349 135.209C252.661 134.893 252.819 134.301 252.819 133.427V131.109C252.819 130.231 252.666 129.634 252.349 129.322C252.038 129.011 251.44 128.852 250.562 128.852H249.796C248.954 128.852 248.229 128.955 247.621 129.154C247.008 129.353 246.687 129.674 246.656 130.109V135.679L246.651 135.684Z" fill="white"/>
<path d="M259.222 132.968V133.453C259.222 134.321 259.38 134.908 259.697 135.22C260.014 135.531 260.606 135.689 261.479 135.689H263.133C263.818 135.689 264.323 135.628 264.655 135.501C264.982 135.373 265.201 135.148 265.309 134.827C265.38 134.571 265.487 134.377 265.615 134.244C265.748 134.112 265.947 134.04 266.212 134.04C266.478 134.04 266.708 134.117 266.856 134.26C267.004 134.408 267.05 134.622 266.994 134.903C266.845 135.735 266.452 136.358 265.804 136.767C265.16 137.175 264.267 137.38 263.123 137.38H261.469C260.131 137.38 259.14 137.058 258.492 136.415C257.843 135.771 257.522 134.781 257.522 133.453V131.114C257.522 129.751 257.843 128.75 258.492 128.107C259.14 127.464 260.131 127.152 261.469 127.162H263.123C264.466 127.162 265.462 127.484 266.105 128.122C266.748 128.766 267.07 129.761 267.07 131.109V132.115C267.07 132.682 266.789 132.963 266.223 132.963H259.212L259.222 132.968ZM261.479 128.858C260.606 128.842 260.014 128.995 259.697 129.312C259.38 129.629 259.222 130.231 259.222 131.114V131.278H265.39V131.114C265.39 130.236 265.232 129.639 264.92 129.327C264.609 129.016 264.012 128.858 263.133 128.858H261.479Z" fill="white"/>
<path d="M271.431 137.38C270.869 137.38 270.583 137.099 270.583 136.532V128.01C270.583 127.443 270.864 127.162 271.431 127.162C271.997 127.162 272.278 127.443 272.278 128.01V128.342C272.988 127.555 274.04 127.162 275.424 127.162H275.985C277.328 127.162 278.324 127.484 278.967 128.127C279.611 128.771 279.932 129.766 279.932 131.109V136.532C279.932 137.099 279.651 137.38 279.085 137.38C278.518 137.38 278.237 137.099 278.237 136.532V131.109C278.237 130.231 278.079 129.634 277.757 129.322C277.435 129.011 276.843 128.852 275.98 128.852H275.418C274.612 128.852 273.912 128.944 273.315 129.128C272.717 129.312 272.37 129.603 272.278 130.001V136.532C272.278 137.099 271.997 137.38 271.431 137.38Z" fill="white"/>
<path d="M284.569 137.38C284.283 137.38 284.068 137.313 283.93 137.175C283.792 137.037 283.726 136.823 283.726 136.537V124.589C283.726 124.293 283.798 124.078 283.93 123.945C284.068 123.813 284.283 123.746 284.569 123.746C284.855 123.746 285.079 123.813 285.212 123.945C285.345 124.078 285.411 124.293 285.411 124.589V136.537C285.411 136.828 285.345 137.037 285.212 137.175C285.079 137.313 284.865 137.38 284.569 137.38Z" fill="white"/>
<path d="M290.252 137.38C289.685 137.38 289.404 137.099 289.404 136.532V128.01C289.404 127.443 289.685 127.162 290.252 127.162C290.818 127.162 291.099 127.443 291.099 128.01V128.342C291.809 127.555 292.861 127.162 294.245 127.162H294.806C296.149 127.162 297.145 127.484 297.788 128.127C298.432 128.771 298.753 129.766 298.753 131.109V136.532C298.753 137.099 298.472 137.38 297.906 137.38C297.339 137.38 297.058 137.099 297.058 136.532V131.109C297.058 130.231 296.9 129.634 296.578 129.322C296.262 129.011 295.669 128.852 294.801 128.852H294.24C293.433 128.852 292.733 128.944 292.136 129.128C291.538 129.312 291.191 129.603 291.099 130.001V136.532C291.099 137.099 290.818 137.38 290.252 137.38Z" fill="white"/>
<path d="M303.772 137.38C303.211 137.38 302.925 137.099 302.925 136.532V128.852H302.179C301.618 128.852 301.332 128.572 301.332 128.005C301.332 127.438 301.613 127.157 302.179 127.157H302.925V127.075C302.925 125.753 303.241 124.773 303.88 124.139C304.518 123.506 305.493 123.19 306.811 123.19C307.296 123.19 307.536 123.471 307.536 124.037C307.536 124.604 307.296 124.885 306.811 124.885C305.963 124.885 305.386 125.038 305.08 125.339C304.768 125.641 304.615 126.223 304.615 127.081V127.162H306.693C307.255 127.162 307.541 127.443 307.541 128.01C307.541 128.577 307.26 128.858 306.693 128.858H304.615V136.537C304.615 137.104 304.334 137.385 303.767 137.385L303.772 137.38Z" fill="white"/>
<path d="M310.967 137.38C310.4 137.38 310.119 137.099 310.119 136.532V128.01C310.119 127.443 310.4 127.162 310.967 127.162C311.534 127.162 311.815 127.443 311.815 128.01V128.796C312.213 128.26 312.713 127.852 313.331 127.576C313.944 127.3 314.648 127.162 315.44 127.162C316.002 127.162 316.288 127.443 316.288 128.01C316.288 128.577 316.007 128.858 315.44 128.858C314.276 128.858 313.392 129.072 312.78 129.501C312.167 129.93 311.845 130.497 311.815 131.201V136.532C311.815 137.099 311.534 137.38 310.967 137.38Z" fill="white"/>
<path d="M321.062 137.38C319.933 137.38 319.091 137.104 318.544 136.552C317.998 136.001 317.717 135.163 317.717 134.035C317.717 132.907 317.993 132.069 318.539 131.518C319.086 130.966 319.928 130.691 321.062 130.691H325.325C325.285 129.986 325.101 129.506 324.769 129.246C324.442 128.985 323.875 128.857 323.079 128.857H321.909C321.235 128.857 320.735 128.903 320.408 128.995C320.076 129.087 319.847 129.251 319.714 129.486C319.591 129.766 319.469 129.96 319.341 130.068C319.213 130.175 319.024 130.231 318.769 130.231C318.488 130.231 318.264 130.154 318.105 129.996C317.947 129.838 317.896 129.628 317.962 129.368C318.162 128.607 318.585 128.056 319.224 127.698C319.867 127.346 320.761 127.167 321.909 127.167H323.079C324.422 127.167 325.417 127.489 326.061 128.132C326.704 128.776 327.026 129.771 327.026 131.114V136.537C327.026 137.104 326.745 137.385 326.178 137.385C325.611 137.385 325.33 137.104 325.33 136.537V136.083C324.611 136.951 323.564 137.385 322.185 137.385H321.057L321.062 137.38ZM321.062 135.684H322.19C322.686 135.684 323.155 135.638 323.589 135.546C324.023 135.455 324.401 135.291 324.713 135.046C325.024 134.806 325.233 134.459 325.33 134.01V132.376H321.057C320.393 132.376 319.949 132.488 319.734 132.707C319.52 132.927 319.407 133.371 319.407 134.025C319.407 134.678 319.515 135.133 319.734 135.347C319.954 135.567 320.393 135.674 321.057 135.674L321.062 135.684Z" fill="white"/>
<path d="M233.033 156.599C232.001 156.599 231.241 156.354 230.745 155.859C230.25 155.363 230.005 154.603 230.005 153.571V148.005C230.005 147.817 230.051 147.674 230.148 147.582C230.245 147.49 230.383 147.439 230.572 147.439C230.761 147.439 230.904 147.485 230.995 147.582C231.087 147.679 231.138 147.817 231.138 148.005V153.571C231.138 154.051 231.195 154.429 231.312 154.705C231.429 154.98 231.624 155.174 231.894 155.287C232.17 155.404 232.548 155.46 233.028 155.46H234.646C235.126 155.46 235.504 155.404 235.78 155.287C236.056 155.174 236.25 154.975 236.362 154.705C236.479 154.429 236.536 154.051 236.536 153.571V148.005C236.536 147.817 236.582 147.674 236.679 147.582C236.776 147.49 236.913 147.439 237.102 147.439C237.291 147.439 237.434 147.485 237.526 147.582C237.618 147.679 237.669 147.817 237.669 148.005V153.571C237.669 154.603 237.424 155.363 236.934 155.859C236.444 156.354 235.678 156.599 234.646 156.599H233.028H233.033Z" fill="white"/>
<path d="M243.924 156.599C243.153 156.599 242.556 156.446 242.127 156.134C241.698 155.823 241.427 155.343 241.32 154.694C241.3 154.495 241.34 154.347 241.443 154.25C241.54 154.153 241.688 154.102 241.877 154.102C242.066 154.102 242.203 154.148 242.29 154.235C242.377 154.327 242.438 154.465 242.469 154.654C242.535 154.965 242.683 155.179 242.903 155.292C243.128 155.409 243.465 155.465 243.924 155.465H245.87C246.452 155.465 246.845 155.363 247.054 155.154C247.264 154.945 247.366 154.556 247.366 153.985C247.366 153.413 247.258 153.004 247.044 152.795C246.83 152.58 246.436 152.473 245.87 152.473H244.195C243.342 152.473 242.714 152.264 242.3 151.85C241.887 151.437 241.683 150.798 241.683 149.951C241.683 149.103 241.887 148.475 242.295 148.067C242.704 147.658 243.332 147.454 244.185 147.454H245.793C246.508 147.454 247.07 147.602 247.478 147.893C247.886 148.184 248.142 148.633 248.249 149.236C248.275 149.43 248.239 149.578 248.142 149.68C248.045 149.782 247.892 149.833 247.698 149.833C247.519 149.833 247.381 149.787 247.294 149.69C247.202 149.593 247.146 149.461 247.121 149.277C247.049 149.011 246.911 148.827 246.707 148.736C246.503 148.639 246.201 148.587 245.793 148.587H244.185C243.643 148.587 243.281 148.684 243.097 148.873C242.913 149.062 242.821 149.425 242.821 149.951C242.821 150.477 242.913 150.849 243.102 151.044C243.291 151.243 243.659 151.34 244.195 151.34H245.87C246.758 151.34 247.417 151.554 247.851 151.988C248.285 152.422 248.504 153.086 248.504 153.99C248.504 154.893 248.29 155.547 247.856 155.971C247.422 156.395 246.763 156.609 245.87 156.609H243.924V156.599Z" fill="white"/>
<path d="M252.972 156.599C252.594 156.599 252.405 156.41 252.405 156.032V148.01C252.405 147.633 252.594 147.444 252.972 147.444H257.823C258.201 147.444 258.39 147.633 258.39 148.01C258.39 148.388 258.201 148.577 257.823 148.577H253.539V151.411H256.225C256.602 151.411 256.791 151.6 256.791 151.978C256.791 152.356 256.602 152.545 256.225 152.545H253.539V155.46H257.823C258.201 155.46 258.39 155.649 258.39 156.027C258.39 156.405 258.201 156.594 257.823 156.594H252.972V156.599Z" fill="white"/>
<path d="M268.061 156.624C267.913 156.716 267.77 156.747 267.637 156.711C267.504 156.675 267.387 156.584 267.295 156.435L265.201 152.953H263.312V156.032C263.312 156.41 263.123 156.599 262.745 156.599C262.367 156.599 262.178 156.41 262.178 156.032V148.01C262.178 147.633 262.367 147.444 262.745 147.444H265.906C266.728 147.444 267.361 147.663 267.8 148.102C268.239 148.541 268.459 149.175 268.459 149.997V150.4C268.459 151.115 268.29 151.687 267.959 152.111C267.627 152.534 267.142 152.8 266.514 152.902L268.28 155.853C268.454 156.17 268.377 156.425 268.066 156.624H268.061ZM263.307 151.814H265.901C266.411 151.814 266.779 151.707 266.994 151.493C267.208 151.278 267.32 150.911 267.32 150.4V149.997C267.32 149.486 267.213 149.124 266.994 148.904C266.779 148.684 266.411 148.577 265.901 148.577H263.307V151.82V151.814Z" fill="white"/>
<path d="M280.259 156.599C279.228 156.599 278.467 156.354 277.972 155.859C277.476 155.363 277.231 154.602 277.231 153.571V150.466C277.231 149.425 277.476 148.659 277.966 148.169C278.457 147.673 279.217 147.433 280.244 147.444H281.878C282.725 147.444 283.369 147.617 283.818 147.97C284.267 148.322 284.523 148.868 284.594 149.619C284.62 149.808 284.584 149.951 284.487 150.053C284.39 150.15 284.242 150.201 284.053 150.201C283.711 150.201 283.512 150.012 283.461 149.634C283.415 149.221 283.272 148.94 283.032 148.797C282.792 148.654 282.409 148.582 281.883 148.582H280.249C279.774 148.582 279.396 148.633 279.126 148.746C278.855 148.858 278.661 149.052 278.543 149.328C278.426 149.604 278.37 149.987 278.37 150.472V153.576C278.37 154.056 278.426 154.434 278.543 154.71C278.656 154.985 278.855 155.179 279.126 155.292C279.401 155.409 279.779 155.465 280.259 155.465H281.883C282.302 155.465 282.628 155.419 282.863 155.327C283.098 155.236 283.267 155.072 283.359 154.837C283.456 154.602 283.501 154.271 283.501 153.847V153.214L282.45 153.198C282.072 153.198 281.883 153.009 281.883 152.631C281.883 152.254 282.072 152.065 282.45 152.065L284.073 152.08C284.451 152.08 284.64 152.269 284.64 152.647V153.847C284.64 154.807 284.415 155.506 283.971 155.945C283.527 156.384 282.833 156.604 281.883 156.604H280.259V156.599Z" fill="white"/>
<path d="M294.163 156.624C294.015 156.716 293.872 156.747 293.739 156.711C293.606 156.675 293.489 156.584 293.397 156.435L291.304 152.953H289.414V156.032C289.414 156.41 289.225 156.599 288.848 156.599C288.47 156.599 288.281 156.41 288.281 156.032V148.01C288.281 147.633 288.47 147.444 288.848 147.444H292.008C292.83 147.444 293.463 147.663 293.903 148.102C294.342 148.541 294.561 149.175 294.561 149.997V150.4C294.561 151.115 294.393 151.687 294.061 152.111C293.729 152.534 293.244 152.8 292.616 152.902L294.383 155.853C294.556 156.17 294.48 156.425 294.168 156.624H294.163ZM289.409 151.814H292.003C292.514 151.814 292.881 151.707 293.096 151.493C293.31 151.278 293.423 150.911 293.423 150.4V149.997C293.423 149.486 293.315 149.124 293.096 148.904C292.881 148.684 292.514 148.577 292.003 148.577H289.409V151.82V151.814Z" fill="white"/>
<path d="M300.837 156.599C299.805 156.599 299.045 156.354 298.549 155.859C298.054 155.363 297.809 154.602 297.809 153.571V150.451C297.809 149.41 298.059 148.649 298.554 148.159C299.05 147.668 299.81 147.428 300.837 147.439H302.46C303.497 147.439 304.258 147.684 304.748 148.174C305.238 148.664 305.483 149.43 305.483 150.461V153.566C305.483 154.597 305.238 155.358 304.748 155.853C304.258 156.349 303.492 156.594 302.46 156.594H300.837V156.599ZM300.837 155.465H302.46C302.94 155.465 303.318 155.409 303.594 155.292C303.87 155.179 304.064 154.98 304.176 154.71C304.294 154.434 304.35 154.056 304.35 153.576V150.472C304.35 149.997 304.294 149.619 304.176 149.343C304.059 149.067 303.865 148.873 303.594 148.756C303.318 148.639 302.94 148.582 302.46 148.582H300.837C300.362 148.582 299.984 148.633 299.708 148.746C299.433 148.858 299.239 149.052 299.121 149.328C299.004 149.604 298.947 149.981 298.947 150.461V153.581C298.947 154.061 299.004 154.439 299.121 154.715C299.233 154.991 299.433 155.185 299.703 155.297C299.979 155.414 300.357 155.47 300.837 155.47V155.465Z" fill="white"/>
<path d="M312.341 156.599C311.309 156.599 310.548 156.354 310.053 155.859C309.558 155.363 309.313 154.602 309.313 153.571V148.005C309.313 147.816 309.359 147.673 309.456 147.582C309.553 147.49 309.691 147.439 309.88 147.439C310.068 147.439 310.211 147.485 310.303 147.582C310.395 147.679 310.446 147.816 310.446 148.005V153.571C310.446 154.051 310.502 154.429 310.62 154.705C310.737 154.98 310.931 155.174 311.202 155.287C311.478 155.404 311.856 155.46 312.336 155.46H313.954C314.434 155.46 314.812 155.404 315.088 155.287C315.363 155.174 315.557 154.975 315.67 154.705C315.787 154.429 315.843 154.051 315.843 153.571V148.005C315.843 147.816 315.889 147.673 315.986 147.582C316.083 147.49 316.221 147.439 316.41 147.439C316.599 147.439 316.742 147.485 316.834 147.582C316.926 147.679 316.977 147.816 316.977 148.005V153.571C316.977 154.602 316.732 155.363 316.242 155.859C315.752 156.354 314.986 156.599 313.954 156.599H312.336H312.341Z" fill="white"/>
<path d="M321.312 156.599C320.934 156.599 320.745 156.41 320.745 156.032V148.01C320.745 147.633 320.934 147.444 321.312 147.444H324.473C325.295 147.444 325.928 147.663 326.367 148.102C326.806 148.541 327.026 149.175 327.026 149.997V150.4C327.026 151.222 326.806 151.855 326.367 152.294C325.928 152.734 325.295 152.953 324.473 152.953H321.879V156.032C321.879 156.41 321.69 156.599 321.312 156.599ZM321.879 151.82H324.473C324.983 151.82 325.351 151.712 325.566 151.498C325.78 151.283 325.892 150.916 325.892 150.405V150.002C325.892 149.491 325.785 149.129 325.566 148.909C325.351 148.69 324.983 148.582 324.473 148.582H321.879V151.825V151.82Z" fill="white"/>
<path d="M282.709 188.741V203H279.781V188.741H282.709ZM288.046 194.666V203H285.226V192.403H287.87L288.046 194.666ZM287.635 197.33H286.871C286.871 196.546 286.972 195.841 287.175 195.214C287.377 194.581 287.661 194.042 288.027 193.598C288.392 193.148 288.827 192.805 289.329 192.57C289.839 192.328 290.407 192.208 291.033 192.208C291.53 192.208 291.983 192.279 292.395 192.423C292.806 192.567 293.159 192.795 293.452 193.109C293.753 193.422 293.981 193.837 294.138 194.352C294.301 194.868 294.383 195.498 294.383 196.242V203H291.543V196.233C291.543 195.763 291.477 195.397 291.347 195.136C291.216 194.875 291.024 194.692 290.769 194.587C290.521 194.476 290.214 194.421 289.848 194.421C289.47 194.421 289.14 194.496 288.859 194.646C288.585 194.796 288.357 195.005 288.174 195.273C287.997 195.534 287.864 195.841 287.772 196.194C287.681 196.546 287.635 196.925 287.635 197.33ZM302.786 200.689V187.957H305.626V203H303.07L302.786 200.689ZM296.087 197.829V197.623C296.087 196.814 296.178 196.079 296.361 195.42C296.544 194.754 296.812 194.183 297.164 193.706C297.517 193.229 297.951 192.86 298.467 192.599C298.983 192.338 299.57 192.208 300.23 192.208C300.85 192.208 301.392 192.338 301.855 192.599C302.325 192.86 302.724 193.233 303.05 193.716C303.383 194.192 303.651 194.757 303.853 195.41C304.056 196.056 304.202 196.765 304.294 197.535V197.986C304.202 198.723 304.056 199.409 303.853 200.042C303.651 200.676 303.383 201.231 303.05 201.707C302.724 202.177 302.325 202.543 301.855 202.804C301.385 203.065 300.837 203.196 300.21 203.196C299.551 203.196 298.963 203.062 298.447 202.794C297.938 202.527 297.507 202.151 297.154 201.668C296.808 201.185 296.544 200.617 296.361 199.964C296.178 199.311 296.087 198.599 296.087 197.829ZM298.907 197.623V197.829C298.907 198.266 298.94 198.675 299.005 199.053C299.077 199.432 299.191 199.768 299.348 200.062C299.511 200.349 299.72 200.574 299.975 200.738C300.236 200.894 300.553 200.973 300.925 200.973C301.408 200.973 301.806 200.865 302.12 200.65C302.433 200.428 302.671 200.124 302.835 199.739C303.004 199.354 303.102 198.91 303.128 198.407V197.124C303.109 196.713 303.05 196.344 302.952 196.017C302.861 195.684 302.724 195.4 302.541 195.165C302.365 194.93 302.143 194.747 301.875 194.617C301.614 194.486 301.304 194.421 300.945 194.421C300.579 194.421 300.265 194.506 300.004 194.676C299.743 194.839 299.531 195.064 299.368 195.351C299.211 195.639 299.094 195.978 299.015 196.37C298.943 196.755 298.907 197.173 298.907 197.623ZM310.807 192.403V203H307.976V192.403H310.807ZM307.8 189.642C307.8 189.23 307.944 188.891 308.231 188.623C308.518 188.355 308.903 188.222 309.387 188.222C309.863 188.222 310.245 188.355 310.532 188.623C310.826 188.891 310.973 189.23 310.973 189.642C310.973 190.053 310.826 190.392 310.532 190.66C310.245 190.928 309.863 191.062 309.387 191.062C308.903 191.062 308.518 190.928 308.231 190.66C307.944 190.392 307.8 190.053 307.8 189.642ZM318.857 200.61V195.89C318.857 195.55 318.801 195.26 318.69 195.018C318.579 194.77 318.406 194.578 318.171 194.44C317.943 194.303 317.646 194.235 317.28 194.235C316.967 194.235 316.696 194.29 316.467 194.401C316.239 194.506 316.062 194.659 315.938 194.862C315.814 195.057 315.752 195.289 315.752 195.557H312.932C312.932 195.106 313.036 194.679 313.245 194.274C313.454 193.869 313.758 193.513 314.156 193.206C314.554 192.893 315.028 192.648 315.576 192.472C316.131 192.296 316.751 192.208 317.437 192.208C318.259 192.208 318.991 192.345 319.631 192.619C320.27 192.893 320.773 193.304 321.139 193.853C321.511 194.401 321.697 195.087 321.697 195.909V200.444C321.697 201.025 321.733 201.502 321.805 201.874C321.877 202.239 321.981 202.559 322.118 202.834V203H319.268C319.131 202.713 319.027 202.354 318.955 201.923C318.89 201.485 318.857 201.048 318.857 200.61ZM319.229 196.546L319.249 198.142H317.672C317.3 198.142 316.977 198.185 316.702 198.27C316.428 198.355 316.203 198.475 316.027 198.632C315.85 198.782 315.72 198.959 315.635 199.161C315.556 199.363 315.517 199.585 315.517 199.827C315.517 200.068 315.573 200.287 315.684 200.483C315.795 200.672 315.955 200.823 316.164 200.934C316.373 201.038 316.617 201.09 316.898 201.09C317.323 201.09 317.691 201.005 318.005 200.836C318.318 200.666 318.56 200.457 318.73 200.209C318.906 199.961 318.997 199.726 319.004 199.504L319.748 200.699C319.644 200.966 319.5 201.244 319.317 201.531C319.141 201.818 318.916 202.089 318.641 202.344C318.367 202.592 318.037 202.798 317.652 202.961C317.267 203.118 316.81 203.196 316.281 203.196C315.609 203.196 314.998 203.062 314.45 202.794C313.908 202.52 313.477 202.145 313.157 201.668C312.844 201.185 312.687 200.636 312.687 200.023C312.687 199.468 312.791 198.975 313 198.544C313.209 198.113 313.516 197.751 313.921 197.457C314.332 197.157 314.845 196.931 315.459 196.781C316.072 196.624 316.784 196.546 317.593 196.546H319.229Z" fill="white"/>
<path d="M261.36 242.56C261.011 242.56 260.836 242.385 260.836 242.036V234.63C260.836 234.28 261.011 234.106 261.36 234.106H264.365C265.45 234.106 266.248 234.364 266.759 234.879C267.274 235.39 267.532 236.188 267.532 237.273V239.393C267.532 240.477 267.276 241.277 266.765 241.793C266.258 242.304 265.458 242.56 264.365 242.56H261.36ZM261.884 241.512H264.365C264.897 241.512 265.317 241.448 265.624 241.319C265.936 241.186 266.156 240.966 266.285 240.658C266.418 240.346 266.484 239.925 266.484 239.393V237.273C266.484 236.745 266.418 236.327 266.285 236.02C266.156 235.708 265.936 235.486 265.624 235.353C265.317 235.22 264.897 235.153 264.365 235.153H261.884V241.512ZM270.72 242.56C270.371 242.56 270.196 242.385 270.196 242.036V234.63C270.196 234.28 270.371 234.106 270.72 234.106H275.196C275.545 234.106 275.72 234.28 275.72 234.63C275.72 234.979 275.545 235.153 275.196 235.153H271.244V237.772H273.725C274.074 237.772 274.249 237.946 274.249 238.295C274.249 238.644 274.074 238.819 273.725 238.819H271.244V241.512H275.196C275.545 241.512 275.72 241.687 275.72 242.036C275.72 242.385 275.545 242.56 275.196 242.56H270.72ZM278.607 242.56C278.258 242.56 278.083 242.385 278.083 242.036V234.63C278.083 234.28 278.258 234.106 278.607 234.106C278.956 234.106 279.131 234.28 279.131 234.63V241.512H282.584C282.933 241.512 283.108 241.687 283.108 242.036C283.108 242.385 282.933 242.56 282.584 242.56H278.607ZM285.727 242.56C285.589 242.56 285.467 242.508 285.359 242.404C285.255 242.296 285.203 242.173 285.203 242.036V234.63C285.203 234.492 285.255 234.372 285.359 234.268C285.467 234.16 285.589 234.106 285.727 234.106C285.864 234.106 285.984 234.16 286.088 234.268C286.196 234.372 286.25 234.492 286.25 234.63V237.759H291.337V234.63C291.337 234.492 291.389 234.372 291.493 234.268C291.597 234.16 291.72 234.106 291.861 234.106C291.998 234.106 292.119 234.16 292.223 234.268C292.331 234.372 292.385 234.492 292.385 234.63V242.036C292.385 242.173 292.331 242.296 292.223 242.404C292.119 242.508 291.998 242.56 291.861 242.56C291.72 242.56 291.597 242.508 291.493 242.404C291.389 242.296 291.337 242.173 291.337 242.036V238.807H286.25V242.036C286.25 242.173 286.196 242.296 286.088 242.404C285.984 242.508 285.864 242.56 285.727 242.56ZM295.878 242.56C295.699 242.56 295.566 242.518 295.479 242.435C295.396 242.348 295.354 242.215 295.354 242.036V234.642C295.354 234.459 295.396 234.326 295.479 234.243C295.566 234.16 295.699 234.118 295.878 234.118C296.061 234.118 296.194 234.16 296.277 234.243C296.36 234.326 296.402 234.459 296.402 234.642V242.036C296.402 242.215 296.36 242.348 296.277 242.435C296.194 242.518 296.061 242.56 295.878 242.56ZM299.058 244.143C298.908 244.143 298.792 244.106 298.708 244.031C298.629 243.956 298.6 243.848 298.621 243.707L298.97 241.718C298.983 241.415 299.149 241.263 299.469 241.263H299.768C300.084 241.263 300.242 241.425 300.242 241.749V242.061C300.242 242.131 300.23 242.202 300.205 242.273C300.184 242.339 300.157 242.406 300.124 242.472L299.469 243.869C299.369 244.052 299.232 244.143 299.058 244.143ZM307.776 242.56C307.598 242.56 307.465 242.518 307.377 242.435C307.294 242.348 307.253 242.215 307.253 242.036V234.642C307.253 234.459 307.294 234.326 307.377 234.243C307.465 234.16 307.598 234.118 307.776 234.118C307.959 234.118 308.092 234.16 308.175 234.243C308.258 234.326 308.3 234.459 308.3 234.642V242.036C308.3 242.215 308.258 242.348 308.175 242.435C308.092 242.518 307.959 242.56 307.776 242.56ZM311.791 242.56C311.442 242.56 311.267 242.385 311.267 242.036V234.63C311.267 234.28 311.442 234.106 311.791 234.106C311.97 234.106 312.144 234.21 312.315 234.418L317.327 240.876H317.065V234.63C317.065 234.28 317.24 234.106 317.589 234.106C317.938 234.106 318.113 234.28 318.113 234.63V242.036C318.113 242.385 317.938 242.56 317.589 242.56C317.402 242.56 317.227 242.456 317.065 242.248L312.053 235.789H312.315V242.036C312.315 242.385 312.14 242.56 311.791 242.56ZM321.602 242.56C321.253 242.56 321.078 242.385 321.078 242.036V234.63C321.078 234.28 321.253 234.106 321.602 234.106H324.607C325.691 234.106 326.489 234.364 327.001 234.879C327.516 235.39 327.774 236.188 327.774 237.273V239.393C327.774 240.477 327.518 241.277 327.007 241.793C326.5 242.304 325.7 242.56 324.607 242.56H321.602ZM322.125 241.512H324.607C325.139 241.512 325.558 241.448 325.866 241.319C326.178 241.186 326.398 240.966 326.527 240.658C326.66 240.346 326.726 239.925 326.726 239.393V237.273C326.726 236.745 326.66 236.327 326.527 236.02C326.398 235.708 326.178 235.486 325.866 235.353C325.558 235.22 325.139 235.153 324.607 235.153H322.125V241.512ZM330.962 242.56C330.783 242.56 330.65 242.518 330.563 242.435C330.48 242.348 330.438 242.215 330.438 242.036V234.642C330.438 234.459 330.48 234.326 330.563 234.243C330.65 234.16 330.783 234.118 330.962 234.118C331.145 234.118 331.278 234.16 331.361 234.243C331.444 234.326 331.486 234.459 331.486 234.642V242.036C331.486 242.215 331.444 242.348 331.361 242.435C331.278 242.518 331.145 242.56 330.962 242.56ZM334.054 242.51C333.722 242.381 333.622 242.152 333.755 241.824L336.722 234.517C336.847 234.243 337.042 234.106 337.308 234.106H337.333C337.603 234.118 337.786 234.256 337.882 234.517L340.899 241.824C341.032 242.152 340.937 242.381 340.612 242.51C340.284 242.639 340.056 242.543 339.927 242.223L339.253 240.59H335.369L334.727 242.223C334.598 242.547 334.374 242.643 334.054 242.51ZM335.781 239.542H338.823L337.271 235.764L335.781 239.542Z" fill="#FFB325"/>
</g>
<defs>
<clipPath id="clip0_263_3665">
<rect width="600" height="338" fill="white"/>
</clipPath>
<clipPath id="clip1_263_3665">
<rect width="571" height="411.309" fill="white" transform="translate(-2 -10)"/>
</clipPath>
<clipPath id="clip2_263_3665">
<rect width="181.77" height="115.1" fill="white" transform="translate(209 101)"/>
</clipPath>
</defs>
</svg>
